HIERARCHY
ROOT hip
{
	OFFSET 0.000000 0.000000 0.000000 
	CHANNELS 6 Xposition Yposition Zposition Zrotation Xrotation Yrotation
	JOINT abdomen
	{
		OFFSET 0.000000 3.402643 0.000000 
		CHANNELS 3 Zrotation Xrotation Yrotation
		JOINT chest
		{
			OFFSET 0.000000 8.438565 -0.680529 
			CHANNELS 3 Zrotation Xrotation Yrotation
			JOINT neck
			{
				OFFSET 0.000000 10.207942 -0.272212 
				CHANNELS 3 Zrotation Xrotation Yrotation
				JOINT head
				{
					OFFSET 0.000000 3.130431 0.000000 
					CHANNELS 3 Zrotation Xrotation Yrotation
					End Site
					{
						OFFSET 0.000000 3.130435 0.000000 
					}
				}
			}
			JOINT lCollar
			{
				OFFSET 3.470700 6.669187 -0.816635 
				CHANNELS 3 Zrotation Xrotation Yrotation
				JOINT lShldr
				{
					OFFSET 3.198488 0.000000 0.000000 
					CHANNELS 3 Zrotation Xrotation Yrotation
					JOINT lForeArm
					{
						OFFSET 10.139888 0.000000 0.000000 
						CHANNELS 3 Zrotation Xrotation Yrotation
						JOINT lHand
						{
							OFFSET 8.370511 0.000000 0.000000 
							CHANNELS 3 Zrotation Xrotation Yrotation
							End Site
							{
								OFFSET 4.083176 0.000000 0.000000 
							}
						}
					}
				}
			}
			JOINT rCollar
			{
				OFFSET -3.470700 6.669187 -0.816635 
				CHANNELS 3 Zrotation Xrotation Yrotation
				JOINT rShldr
				{
					OFFSET -3.198488 0.000000 0.000000 
					CHANNELS 3 Zrotation Xrotation Yrotation
					JOINT rForeArm
					{
						OFFSET -10.139888 0.000000 0.000000 
						CHANNELS 3 Zrotation Xrotation Yrotation
						JOINT rHand
						{
							OFFSET -8.370511 0.000000 0.000000 
							CHANNELS 3 Zrotation Xrotation Yrotation
							End Site
							{
								OFFSET -4.083176 0.000000 0.000000 
							}
						}
					}
				}
			}
		}
	}
	JOINT lThigh
	{
		OFFSET 5.308129 -1.633274 1.361059 
		CHANNELS 3 Zrotation Xrotation Yrotation
		JOINT lShin
		{
			OFFSET -2.041588 -20.007561 0.000000 
			CHANNELS 3 Zrotation Xrotation Yrotation
			JOINT lFoot
			{
				OFFSET 0.000000 -19.190928 -1.224953 
				CHANNELS 3 Zrotation Xrotation Yrotation
				End Site
				{
					OFFSET 0.000000 -2.449906 4.627600 
				}
			}
		}
	}
	JOINT rThigh
	{
		OFFSET -5.308129 -1.633274 1.361059 
		CHANNELS 3 Zrotation Xrotation Yrotation
		JOINT rShin
		{
			OFFSET 2.041588 -20.007561 0.000000 
			CHANNELS 3 Zrotation Xrotation Yrotation
			JOINT rFoot
			{
				OFFSET 0.000000 -19.190928 -1.224953 
				CHANNELS 3 Zrotation Xrotation Yrotation
				End Site
				{
					OFFSET 0.000000 -2.449906 4.627600 
				}
			}
		}
	}
}
MOTION
Frames: 11
Frame Time: 0.033333
0.000000 48.013634 0.291666 -0.000000 -0.000010 -0.000000 1.192445 -2.392062 0.332980 2.519547 -0.204882 -0.840594 -0.000000 -0.000003 -0.000000 -0.000000 0.000001 -0.000000 -5.687435 -0.268816 2.011532 -72.947174 15.738562 10.363277 -8.608580 3.601588 -19.084557 5.932204 -0.060074 -3.367898 6.843062 -1.678813 -3.539878 67.334221 7.925993 24.013147 -7.179715 37.695770 19.028704 -10.725310 -8.708343 -8.611309 2.737453 -7.557142 0.893447 -2.532367 14.536331 -0.654844 -0.522385 -7.431553 0.346941 -4.381215 -7.522904 -0.504117 2.178272 14.479564 -0.308129 1.338679 -7.571323 -1.421647 
0.000000 48.013634 0.291666 -0.000000 -0.000010 -0.000000 1.202237 -2.411572 0.333798 2.539076 -0.195122 -0.840956 -0.000000 -0.000003 -0.000000 -0.000000 0.000001 -0.000000 -5.687435 -0.268816 2.011532 -72.947174 15.738562 10.363277 -8.608580 3.601588 -19.084557 5.932204 -0.060074 -3.367898 6.871740 -1.682963 -3.559054 67.231590 8.096760 23.944788 -7.557250 40.759331 19.630396 -8.892704 -7.025486 -4.853935 2.737453 -7.557142 0.893447 -2.400787 14.516020 -0.741923 -0.616442 -7.304857 0.390171 -4.381215 -7.522904 -0.504117 2.178272 14.479564 -0.308129 1.332723 -7.685841 -1.454178 
0.000000 48.013634 0.291666 -0.000000 -0.000010 -0.000000 1.114244 -2.382368 0.300419 2.207041 -0.175649 -0.715887 -0.000000 -0.000003 -0.000000 -0.000000 0.000001 -0.000000 -5.687435 -0.268816 2.011532 -72.947174 15.738562 10.363277 -8.608580 3.601588 -19.084557 5.932204 -0.060074 -3.367898 7.446730 -1.521474 -3.699571 62.420010 9.988058 27.940052 -4.544561 44.471405 22.243559 -7.327293 -5.409163 -1.759846 2.971547 -7.541179 0.921821 -2.612407 14.800188 -0.647624 -0.679184 -7.744491 0.427760 -4.381215 -7.522904 -0.504117 2.443876 14.751648 -0.254269 1.187869 -7.892326 -1.381580 
0.000000 48.013634 0.291666 -0.000000 -0.000010 -0.000000 0.938078 -2.011450 0.247773 1.865242 -0.165928 -0.639124 -0.000000 -0.000003 -0.000000 -0.000000 0.000001 -0.000000 -5.687435 -0.268816 2.011532 -72.947174 15.738562 10.363277 -8.608580 3.601588 -19.084557 5.932204 -0.060074 -3.367898 6.949875 -1.273975 -3.305971 60.392033 2.931435 28.497726 -21.979532 36.121284 49.268326 4.898753 -9.385453 -6.734931 2.971547 -7.541179 0.921821 -2.612407 14.800188 -0.647624 -0.679184 -7.744491 0.427760 -4.381215 -7.522904 -0.504117 2.443876 14.751648 -0.254269 1.187869 -7.892326 -1.381580 
0.000000 48.013634 0.291666 -0.000000 -0.000010 -0.000000 0.586075 -1.240169 0.139638 1.171879 -0.146451 -0.485285 -0.000000 -0.000003 -0.000000 -0.000000 0.000001 -0.000000 -5.687435 -0.268816 2.011532 -72.947174 15.738562 10.363277 -8.608580 3.601588 -19.084557 5.932204 -0.060074 -3.367898 6.393111 -1.007689 -2.872840 58.364162 -4.768856 29.653877 -31.712578 22.058025 72.497482 17.476946 -13.613142 -12.628164 2.971547 -7.541179 0.921821 -2.612407 14.800188 -0.647624 -0.679184 -7.744491 0.427760 -4.381215 -7.522904 -0.504117 2.443876 14.751648 -0.254269 1.187869 -7.892326 -1.381580 
0.000000 48.013634 0.291666 -0.000000 -0.000010 -0.000000 0.195318 -0.400391 0.040427 0.419923 -0.126946 -0.311570 -0.000000 -0.000003 -0.000000 -0.000000 0.000001 -0.000000 -5.687435 -0.268816 2.011532 -72.947174 15.738562 10.363277 -8.608580 3.601588 -19.084557 5.932204 -0.060074 -3.367898 5.871215 -0.762166 -2.457832 56.825588 -11.811838 31.281139 -33.865788 7.806579 91.230286 28.225998 -17.285595 -18.559065 2.971547 -7.541179 0.921821 -2.612407 14.800188 -0.647624 -0.679184 -7.744491 0.427760 -4.381215 -7.522904 -0.504117 2.443876 14.751648 -0.254269 1.187869 -7.892326 -1.381580 
0.000000 48.013634 0.291666 -0.000000 -0.000010 -0.000000 0.009766 -0.000002 -0.000000 0.058594 -0.117182 -0.234255 -0.000000 -0.000003 -0.000000 -0.000000 0.000001 -0.000000 -5.687435 -0.268816 2.011532 -72.947174 15.738562 10.363277 -8.608580 3.601588 -19.084557 5.932204 -0.060074 -3.367898 5.441875 -0.563561 -2.119353 55.895908 -17.384920 33.054520 -31.814491 -3.049855 106.567513 36.264317 -19.978542 -23.747097 2.971547 -7.541179 0.921821 -2.612407 14.800188 -0.647624 -0.679184 -7.744491 0.427760 -4.381215 -7.522904 -0.504117 2.443876 14.751648 -0.254269 1.187869 -7.892326 -1.381580 
0.000000 48.013634 0.291666 -0.000000 -0.000010 -0.000000 0.009766 -0.000002 -0.000000 0.058594 -0.117182 -0.234255 -0.000000 -0.000003 -0.000000 -0.000000 0.000001 -0.000000 -5.687435 -0.268816 2.011532 -72.947174 15.738562 10.363277 -8.608580 3.601588 -19.084557 5.932204 -0.060074 -3.367898 5.441875 -0.563561 -2.119353 55.329315 -18.939205 30.901644 -31.169161 -4.955880 109.650589 37.659893 -21.622185 -23.667822 2.971547 -7.541179 0.921821 -2.612407 14.800188 -0.647624 -0.679184 -7.744491 0.427760 -4.381215 -7.522904 -0.504117 2.443876 14.751648 -0.254269 1.187869 -7.892326 -1.381580 
0.000000 48.013634 0.291666 -0.000000 -0.000010 -0.000000 0.009766 -0.000002 -0.000000 0.058594 -0.117182 -0.234255 -0.000000 -0.000003 -0.000000 -0.000000 0.000001 -0.000000 -5.687435 -0.268816 2.011532 -72.947174 15.738562 10.363277 -8.608580 3.601588 -19.084557 5.932204 -0.060074 -3.367898 5.441875 -0.563561 -2.119353 54.639194 -20.513813 28.720682 -30.418024 -6.801147 112.780754 39.062721 -23.265579 -23.612854 2.971547 -7.541179 0.921821 -2.612407 14.800188 -0.647624 -0.679184 -7.744491 0.427760 -4.381215 -7.522904 -0.504117 2.443876 14.751648 -0.254269 1.187869 -7.892326 -1.381580 
0.000000 48.013634 0.291666 -0.000000 -0.000010 -0.000000 0.009766 -0.000002 -0.000000 0.058594 -0.117182 -0.234255 -0.000000 -0.000003 -0.000000 -0.000000 0.000001 -0.000000 -5.687435 -0.268816 2.011532 -72.947174 15.738562 10.363277 -8.608580 3.601588 -19.084557 5.932204 -0.060074 -3.367898 5.432732 -0.551595 -2.090216 53.980492 -21.342192 26.109648 -29.600256 -8.684196 115.870689 39.936001 -24.502981 -23.862469 2.971547 -7.541179 0.921821 -2.653386 14.804047 -0.612217 -0.542238 -7.724037 0.391745 -4.381215 -7.522904 -0.504117 2.443876 14.751648 -0.254269 1.187869 -7.892326 -1.381580 
0.000000 48.013634 0.291666 -0.000000 -0.000010 -0.000000 0.048828 0.019528 -0.000017 0.087891 -0.107418 -0.302569 -0.000000 -0.000003 -0.000000 -0.000000 0.000001 -0.000000 -5.687435 -0.268816 2.011532 -72.947174 15.738562 10.363277 -8.608580 3.601588 -19.084557 5.932204 -0.060074 -3.367898 5.441875 -0.563561 -2.119353 53.762360 -21.213161 25.149420 -29.271759 -9.155736 117.012939 39.646736 -24.449469 -23.983721 2.992511 -7.543360 0.924850 -2.686041 14.819521 -0.568815 -0.602804 -7.793686 0.345456 -4.381215 -7.522904 -0.504117 2.443876 14.751648 -0.254269 1.187869 -7.892326 -1.381580 
